<svg xmlns="http://www.w3.org/2000/svg" width="93.434" height="2.568" viewBox="0 0 93.434 2.568"><path d="M47.738 0h.98v2.568h-.98zm1.556 0h.714v2.568h-.714zm1.29 0h.438v2.568h-.438zm1.013 0h.441v2.568h-.441zm1.016 0h1.891v2.568h-1.891zm2.467 0h.193v2.568h-.193zm.769 0h1.513v2.568h-1.513zm2.088 0h.225v2.568h-.225zm.801 0h.385v2.568h-.385zm.96 0h.307v2.568h-.307zm.883 0h.199v2.568h-.199zm.774 0h.188v2.568h-.188zm.763 0h.114v2.568h-.114zm.689 0h.697v2.568h-.697zm1.273 0h1.25v2.568h-1.25zm1.826 0h.501v2.568h-.501zm1.076 0h1.023v2.568h-1.023zm1.6 0h.758v2.568h-.758zm22.966 2.568h-.98V0h.98zm-1.555 0h-.714V0h.714zm-1.29 0h-.438V0h.438zm-1.013 0h-.441V0h.441zm-1.017 0h-1.891V0h1.891zm-2.466 0h-.193V0h.193zm-.769 0h-1.513V0h1.513zm-2.088 0h-.225V0h.225zm-.802 0h-.385V0h.385zm-.96 0h-.307V0h.307zm-.882 0h-.199V0h.199zm-.774 0h-.188V0h.188zm-.764 0h-.114V0h.114zm-.689 0h-.697V0h.697zm-1.272 0h-1.25V0h1.25zm-1.826 0h-.501V0h.501zm20.053 0h-1.023V0h1.023zm-22.729 0h-.758V0h.758zm-24.365 0h-.98V0h.98zm-1.556 0h-.714V0h.714zm-1.29 0h-.438V0h.438zm-1.013 0h-.441V0h.441zm-1.016 0h-1.891V0h1.891zm-2.467 0h-.193V0h.193zm-.769 0h-1.513V0h1.513zm-2.088 0h-.225V0h.225zm-.801 0h-.385V0h.385zm-.96 0h-.307V0h.307zm-.883 0h-.199V0h.199zm-.774 0h-.188V0h.188zm-.763 0h-.114V0h.114zm-.69 0h-.697V0h.697zm-1.272 0h-1.25V0h1.25zm-1.826 0h-.501V0h.501zm-1.077 0h-1.023V0h1.023zm-1.599 0h-.758V0h.758zM2.53 0h.98v2.568h-.98zm1.555 0h.714v2.568h-.714zm1.29 0h.438v2.568h-.438zm1.013 0h.441v2.568h-.441zm1.017 0h1.891v2.568H7.405zm2.466 0h.193v2.568h-.193zm.769 0h1.513v2.568H10.64zm2.088 0h.225v2.568h-.225zm.801 0h.385v2.568h-.385zm.961 0h.307v2.568h-.307zm.882 0h.199v2.568h-.199zm.774 0h.188v2.568h-.188zm.764 0h.114v2.568h-.114zm.689 0h.697v2.568h-.697zm1.272 0h1.25v2.568h-1.25zm1.826 0h.501v2.568h-.501zM0 0h1.023v2.568H0zm23.373 0h.758v2.568h-.758z" fill="#fff"/></svg>