<svg xmlns="http://www.w3.org/2000/svg" width="237.464" height="34.42" viewBox="0 0 237.464 34.42"><g transform="translate(138.927)" fill="#fff"><circle cx=".874" cy=".874" r=".874"/><circle cx=".874" cy=".874" transform="translate(5.245)" r=".874"/><circle cx=".874" cy=".874" transform="translate(10.49)" r=".874"/><circle cx=".874" cy=".874" transform="translate(15.735)" r=".874"/><circle cx=".874" cy=".874" transform="translate(20.967)" r=".874"/><circle cx=".874" cy=".874" transform="translate(26.209)" r=".874"/><circle cx=".874" cy=".874" transform="translate(52.418)" r=".874"/><circle cx=".874" cy=".874" transform="translate(57.66)" r=".874"/><circle cx=".874" cy=".874" transform="translate(73.385)" r=".874"/><circle cx=".874" cy=".874" transform="translate(0 6.476)" r=".874"/><circle cx=".874" cy=".874" transform="translate(5.245 6.476)" r=".874"/><circle cx=".874" cy=".874" transform="translate(10.49 6.476)" r=".874"/><circle cx=".874" cy=".874" transform="translate(31.451 6.476)" r=".874"/><circle cx=".874" cy=".874" transform="translate(36.693 6.476)" r=".874"/><circle cx=".874" cy=".874" transform="translate(41.934 6.476)" r=".874"/><circle cx=".874" cy=".874" transform="translate(47.176 6.476)" r=".874"/><circle cx=".874" cy=".874" transform="translate(52.418 6.476)" r=".874"/><circle cx=".874" cy=".874" transform="translate(62.902 6.476)" r=".874"/><circle cx=".874" cy=".874" transform="translate(68.144 6.476)" r=".874"/><circle cx=".874" cy=".874" transform="translate(73.385 6.476)" r=".874"/><circle cx=".874" cy=".874" transform="translate(80.786 6.476)" r=".874"/><circle cx=".874" cy=".874" transform="translate(86.031 6.476)" r=".874"/><circle cx=".874" cy=".874" transform="translate(91.276 6.476)" r=".874"/><circle cx=".874" cy=".874" transform="translate(0 12.951)" r=".874"/><circle cx=".874" cy=".874" transform="translate(5.245 12.951)" r=".874"/><circle cx=".874" cy=".874" transform="translate(10.49 12.951)" r=".874"/><circle cx=".874" cy=".874" transform="translate(15.735 12.951)" r=".874"/><circle cx=".874" cy=".874" transform="translate(20.967 12.951)" r=".874"/><circle cx=".874" cy=".874" transform="translate(26.209 12.951)" r=".874"/><circle cx=".874" cy=".874" transform="translate(31.451 12.951)" r=".874"/><circle cx=".874" cy=".874" transform="translate(36.693 12.951)" r=".874"/><circle cx=".874" cy=".874" transform="translate(41.934 12.951)" r=".874"/><circle cx=".874" cy=".874" transform="translate(47.176 12.951)" r=".874"/></g><path d="M121.328 27.894h2.49v6.526h-2.49zm3.953 0h1.815v6.526h-1.815zm3.279 0h1.112v6.526h-1.112zm2.575 0h1.12v6.526h-1.12zm2.583 0h4.806v6.526h-4.806zm6.269 0h.49v6.526h-.49zm1.954 0h3.844v6.526h-3.844zm5.308 0h.573v6.526h-.573zm2.035 0h.977v6.526h-.977zm2.441 0h.779v6.526h-.779zm2.242 0h.505v6.526h-.505zm1.969 0h.477v6.526h-.477zm1.939 0h.289v6.526h-.289zm1.752 0h1.77v6.526h-1.77zm3.234 0h3.178v6.526h-3.178zm4.64 0h1.273v6.526h-1.273zm2.737 0h2.601v6.526h-2.601zm4.064 0h1.926v6.526h-1.926zm58.371 6.526h-2.49v-6.526h2.49zm-3.953 0h-1.815v-6.526h1.815zm-3.279 0h-1.112v-6.526h1.112zm-2.575 0h-1.12v-6.526h1.12zm-2.583 0h-4.806v-6.526h4.806zm-6.269 0h-.49v-6.526h.49zm-1.954 0h-3.844v-6.526h3.844zm-5.308 0h-.573v-6.526h.573zm-2.036 0h-.977v-6.526h.977zm-2.44 0h-.779v-6.526h.779zm-2.242 0h-.505v-6.526h.505zm-1.969 0h-.477v-6.526h.477zm-1.939 0h-.289v-6.526h.289zm-1.752 0h-1.77v-6.526h1.77zm-3.234 0h-3.178v-6.526h3.178zm-4.64 0h-1.273v-6.526h1.273zm50.964 0h-2.601v-6.526h2.601zm-57.765 0h-1.926v-6.526h1.926zm-61.925 0h-2.49v-6.526h2.49zm-3.953 0h-1.815v-6.526h1.815zm-3.279 0h-1.112v-6.526h1.112zm-2.575 0h-1.12v-6.526h1.12zm-2.583 0h-4.806v-6.526h4.806zm-6.269 0h-.49v-6.526h.49zm-1.954 0h-3.844v-6.526h3.844zm-5.307 0h-.573v-6.526h.573zm-2.036 0h-.977v-6.526h.977zm-2.441 0h-.779v-6.526h.779zm-2.242 0h-.505v-6.526h.505zm-1.969 0h-.477v-6.526h.477zm-1.939 0h-.289v-6.526h.289zm-1.752 0h-1.77v-6.526h1.77zm-3.234 0h-3.178v-6.526h3.178zm-4.64 0h-1.273v-6.526h1.273zm-2.737 0h-2.601v-6.526h2.601zm-4.064 0h-1.926v-6.526H64.8zM6.429 27.894h2.49v6.526h-2.49zm3.953 0h1.815v6.526h-1.815zm3.279 0h1.112v6.526h-1.112zm2.575 0h1.12v6.526h-1.12zm2.583 0h4.806v6.526h-4.806zm6.269 0h.49v6.526h-.49zm1.954 0h3.844v6.526h-3.844zm5.308 0h.573v6.526h-.573zm2.036 0h.977v6.526h-.977zm2.44 0h.779v6.526h-.779zm2.242 0h.505v6.526h-.505zm1.969 0h.477v6.526h-.477zm1.939 0h.289v6.526h-.289zm1.752 0h1.77v6.526h-1.77zm3.234 0h3.178v6.526h-3.178zm4.641 0h1.273v6.526h-1.273zM0 27.894h2.601v6.526H0zm59.403 0h1.926v6.526h-1.926z" fill="#fff"/></svg>