<svg xmlns="http://www.w3.org/2000/svg" width="87" height="23.239" viewBox="0 0 87 23.239"><g fill="#fff"><path d="M25.693 22.136H1.07V1.088h24.623zm-24.188-.435H25.26V1.524H1.505z"/><path d="M.218.218h2.249v2.249H.218z"/><path d="M2.685 2.684H0V-.001h2.685zM.436 2.249H2.25V.435H.436zM24.18.218h2.249v2.249H24.18z"/><path d="M26.647 2.684h-2.685V-.001h2.685zm-2.249-.435h1.814V.435h-1.815zM.218 20.772h2.249v2.249H.218z"/><path d="M2.685 23.238H0v-2.684h2.685zm-2.249-.435H2.25v-1.814H.436zm23.744-2.031h2.249v2.249H24.18z"/><path d="M26.647 23.238h-2.685v-2.684h2.685zm-2.249-.435h1.814v-1.814h-1.815zm-.219-20.336L2.467 20.772m-.139-.165l21.71-18.308.28.333L2.608 20.94zm53.543 1.529H31.247V1.088h24.624zM31.678 21.7h23.753V1.523H31.678z"/><path d="M30.395.218h2.249v2.249h-2.249z"/><path d="M32.862 2.684H30.18V-.001h2.685zm-2.249-.435h1.814V.435h-1.814zM54.357.218h2.249v2.249h-2.249z"/><path d="M56.823 2.684h-2.684V-.001h2.684zm-2.249-.435h1.814V.435h-1.814zM30.395 20.772h2.249v2.249h-2.249z"/><path d="M32.862 23.238H30.18v-2.684h2.685zm-2.249-.435h1.814v-1.814h-1.814zm23.744-2.031h2.249v2.249h-2.249z"/><path d="M56.823 23.238h-2.684v-2.684h2.684zm-2.249-.435h1.814v-1.814h-1.814zm-.218-20.336L32.644 20.772m-.139-.165l21.71-18.308.28.333-21.71 18.308zm53.543 1.529H61.424V1.088h24.623zm-24.188-.435h23.753V1.524H61.859z"/><path d="M60.572.218h2.249v2.249h-2.249z"/><path d="M63.039 2.684h-2.685V-.001h2.685zm-2.249-.435h1.809V.435h-1.81zM84.534.218h2.249v2.249h-2.249z"/><path d="M87.001 2.684h-2.685V-.001h2.685zm-2.249-.435h1.814V.435h-1.814zm-24.18 18.523h2.249v2.249h-2.249z"/><path d="M63.039 23.238h-2.685v-2.684h2.685zm-2.249-.435h1.809v-1.814h-1.81zm23.744-2.031h2.249v2.249h-2.249z"/><path d="M87.001 23.238h-2.685v-2.684h2.685zm-2.249-.435h1.814v-1.814h-1.814zm-.219-20.336L62.821 20.772m-.139-.165l21.71-18.308.28.333-21.71 18.308z"/></g></svg>