<svg xmlns="http://www.w3.org/2000/svg" width="76.22" height="76.221" viewBox="0 0 76.22 76.221"><g fill="#fff"><path d="M8.946 37.713h-.274a29.742 29.742 0 018.739-21.1l.194.194a29.468 29.468 0 00-8.658 20.9zm29.562 29.836a29.743 29.743 0 01-21.1-8.739l.194-.194a29.537 29.537 0 0041.806 0l.194.194a29.743 29.743 0 01-21.1 8.739zM66.159 48.94l-.254-.1a29.459 29.459 0 002.165-11.124h.274a29.736 29.736 0 01-2.185 11.224zm-6.748-32.13a29.6 29.6 0 00-32.027-6.494l-.1-.254a29.811 29.811 0 0132.324 6.554z"/><path d="M47.929 60.917l-.1-.254a24.847 24.847 0 0013.632-13.632l.254.1a25.119 25.119 0 01-13.783 13.783zm13.53-32.524a24.743 24.743 0 00-22.951-15.445v-.274a25.065 25.065 0 0123.2 15.616zm-45.902.001l-.254-.1a25.121 25.121 0 0113.783-13.782l.1.254a24.844 24.844 0 00-13.632 13.632zm22.95 34.357a25.016 25.016 0 01-25.038-25.038h.274a24.743 24.743 0 0024.764 24.764zm13.6-38.638a19.255 19.255 0 00-20.837-4.225l-.1-.254a19.491 19.491 0 0121.135 4.285z"/><path d="M24.714 51.507a19.491 19.491 0 010-27.588l.194.194a19.218 19.218 0 000 27.2zm13.794 5.713a19.442 19.442 0 01-7.341-1.428l.1-.254a19.244 19.244 0 0025.062-25.062l.254-.1a19.5 19.5 0 01-18.079 26.848z"/><path d="M25.11 37.712h-.274a13.627 13.627 0 014-9.667l.194.194a13.356 13.356 0 00-3.924 9.473zm13.398 13.672a13.686 13.686 0 01-12.67-8.527l.254-.1a13.393 13.393 0 0021.889 4.432l.194.194a13.628 13.628 0 01-9.667 4zm12.67-8.527l-.254-.1a13.393 13.393 0 00-12.416-18.438v-.274a13.679 13.679 0 0112.67 18.816z"/><path d="M38.507 45.47a7.762 7.762 0 117.757-7.757h-.274a7.491 7.491 0 10-2.192 5.291l.194.194a7.733 7.733 0 01-5.485 2.272zM59.41 16.616L76.026 0l.193.194L59.604 16.81zM6.027 5.426l.194-.194 11.383 11.383-.194.194zM59.41 58.809l.194-.194 11.383 11.383-.194.194zM0 76.026l17.41-17.41.194.193L.194 76.22z"/></g></svg>