<svg xmlns="http://www.w3.org/2000/svg" width="248.204" height="39.22" viewBox="0 0 248.204 39.22"><g fill="#fff"><circle cx="2.331" cy="2.331" r="2.331" transform="translate(0 34.558)"/><circle cx="2.331" cy="2.331" r="2.331" transform="translate(13.986 34.558)"/><circle cx="2.331" cy="2.331" r="2.331" transform="translate(27.972 34.558)"/><circle cx="2.331" cy="2.331" r="2.331" transform="translate(41.958 34.558)"/><circle cx="2.331" cy="2.331" r="2.331" transform="translate(55.945 34.558)"/><circle cx="2.331" cy="2.331" r="2.331" transform="translate(69.931 34.558)"/><circle cx="2.331" cy="2.331" r="2.331" transform="translate(139.861 34.558)"/><circle cx="2.331" cy="2.331" r="2.331" transform="translate(153.847 34.558)"/><circle cx="2.331" cy="2.331" r="2.331" transform="translate(195.806 34.558)"/><circle cx="2.331" cy="2.331" r="2.331" transform="translate(0 17.279)"/><circle cx="2.331" cy="2.331" r="2.331" transform="translate(13.986 17.279)"/><circle cx="2.331" cy="2.331" r="2.331" transform="translate(27.972 17.279)"/><circle cx="2.331" cy="2.331" r="2.331" transform="translate(83.917 17.279)"/><circle cx="2.331" cy="2.331" r="2.331" transform="translate(97.903 17.279)"/><circle cx="2.331" cy="2.331" r="2.331" transform="translate(111.889 17.279)"/><circle cx="2.331" cy="2.331" r="2.331" transform="translate(125.875 17.279)"/><circle cx="2.331" cy="2.331" r="2.331" transform="translate(139.861 17.279)"/><circle cx="2.331" cy="2.331" r="2.331" transform="translate(167.834 17.279)"/><circle cx="2.331" cy="2.331" r="2.331" transform="translate(181.82 17.279)"/><circle cx="2.331" cy="2.331" r="2.331" transform="translate(195.806 17.279)"/><circle cx="2.331" cy="2.331" r="2.331" transform="translate(215.569 17.279)"/><circle cx="2.331" cy="2.331" r="2.331" transform="translate(229.555 17.279)"/><circle cx="2.331" cy="2.331" r="2.331" transform="translate(243.542 17.279)"/><circle cx="2.331" cy="2.331" r="2.331"/><circle cx="2.331" cy="2.331" r="2.331" transform="translate(13.986)"/><circle cx="2.331" cy="2.331" r="2.331" transform="translate(27.972)"/><circle cx="2.331" cy="2.331" r="2.331" transform="translate(41.958)"/><circle cx="2.331" cy="2.331" r="2.331" transform="translate(55.945)"/><circle cx="2.331" cy="2.331" r="2.331" transform="translate(69.931)"/><circle cx="2.331" cy="2.331" r="2.331" transform="translate(83.917)"/><circle cx="2.331" cy="2.331" r="2.331" transform="translate(97.903)"/><circle cx="2.331" cy="2.331" r="2.331" transform="translate(111.889)"/><circle cx="2.331" cy="2.331" r="2.331" transform="translate(125.875)"/></g></svg>