<svg xmlns="http://www.w3.org/2000/svg" width="25" height="25" viewBox="0 0 25 25"><path d="M12.5 0a12.388 12.388 0 016.31 1.717 12.626 12.626 0 013.157 19.071A12.736 12.736 0 0114.917 25v-8.986h2.451l.554-3.531h-3.714v-2.312a2.01 2.01 0 01.427-1.328 1.955 1.955 0 011.568-.6h2.242v-3.09q-.048-.016-.916-.123a18.2 18.2 0 00-1.975-.123 4.935 4.935 0 00-3.545 1.264 4.887 4.887 0 00-1.332 3.628v2.683H7.852v3.531h2.825v8.985a12.43 12.43 0 01-7.644-4.212A12.612 12.612 0 016.19 1.716 12.391 12.391 0 0112.5 0z" fill="#090e21" fill-rule="evenodd"/></svg>