<svg xmlns="http://www.w3.org/2000/svg" width="166.016" height="18.858" viewBox="0 0 166.016 18.858"><path d="M37.432 18.406v-2.467h-2.406v-4.588l2.114-1.367 5.065 5.955h-1.686v2.467h11.752v-2.467h-2.085l-8.205-9.081 6.1-3.939h2.844V.453h-10.4v2.466h2.145l-7.644 4.972V2.918h2.406V.452H25.7v2.466h2.405v13.02H25.7v2.467zm30.037.002v-2.467h-2.584V2.919h2.584V.451H54.732v2.468h2.584v13.022h-2.584v2.467zM21.099 1.667C18.984-.011 14.199 0 12.134 0S5.283-.011 3.167 1.667C.891 3.467.001 5.511.001 9.431s.89 5.958 3.166 7.762c2.116 1.678 6.9 1.665 8.967 1.665s6.85.013 8.965-1.665c2.279-1.8 3.168-3.848 3.168-7.762s-.889-5.961-3.168-7.764M16.081 14.4c-.714 1.548-2.177 1.858-3.948 1.858S8.9 15.948 8.185 14.4a21.154 21.154 0 010-9.94c.714-1.549 2.176-1.857 3.948-1.857s3.234.308 3.948 1.857a21.216 21.216 0 010 9.94z" fill="#dc000c"/><path d="M91.272 6.822a3.221 3.221 0 00-3.017 2.69c-.43 1.6.258 2.508 1.91 2.508a4.038 4.038 0 001.774-.413l.025-.635a2.58 2.58 0 01-1.574.567c-1.722 0-1.2-1.68-1.049-2.277h3.47c.379-1.577-.166-2.44-1.539-2.44zm.608 2h-2.393c.207-.573.7-1.538 1.661-1.538.635.001.963.535.732 1.536zm55.083-2a3.222 3.222 0 00-3.018 2.69c-.429 1.6.26 2.508 1.911 2.508a4.031 4.031 0 001.774-.413l.024-.635a2.574 2.574 0 01-1.574.567c-1.723 0-1.2-1.68-1.048-2.277h3.467c.383-1.577-.164-2.44-1.536-2.44zm.607 2h-2.393c.208-.573.7-1.538 1.662-1.538.635.001.966.535.731 1.536zm-50.74-2a2.149 2.149 0 00-1.743.808l.184-.692h-1.007a1.061 1.061 0 01-.046.306l-1.15 4.3a1.913 1.913 0 01-.135.394h1.058a1.076 1.076 0 01.045-.308l.781-2.919a1.481 1.481 0 011.469-1.182c.606 0 .868.316.713.894l-.86 3.208a1.234 1.234 0 01-.112.308h1.056a1.138 1.138 0 01.046-.308l.9-3.353c.243-.918-.201-1.456-1.199-1.456zm9.333.115h-1.071a.808.808 0 01-.046.306l-.811 3.027a1.462 1.462 0 01-1.415 1.056c-.586 0-.845-.354-.689-.949l.841-3.134a.875.875 0 01.122-.306h-1.077a1.081 1.081 0 01-.043.306l-.882 3.287c-.258.961.177 1.49 1.216 1.49a2.106 2.106 0 001.694-.77l-.181.683h1.007a1.219 1.219 0 01.044-.308l1.174-4.382a1.313 1.313 0 01.117-.306zm22.881 0h-1.075a.808.808 0 01-.045.306l-.81 3.027a1.466 1.466 0 01-1.417 1.056c-.586 0-.846-.354-.687-.949l.84-3.134a.886.886 0 01.121-.306h-1.076a1.062 1.062 0 01-.043.306l-.881 3.287c-.257.961.177 1.49 1.215 1.49a2.108 2.108 0 001.695-.77l-.182.683h1.002a1.248 1.248 0 01.043-.308l1.175-4.382a1.219 1.219 0 01.125-.306zm-14.382.266l.443 4.727-.874 1.219a3.31 3.31 0 01-.221.28h.731a1.605 1.605 0 01.16-.28l4.054-5.945a2.169 2.169 0 01.216-.27h-.719a1.321 1.321 0 01-.162.27L116 10.585l-.266-3.381a.83.83 0 01.018-.27h-1.135a1.848 1.848 0 01.045.269zm6.961-.381a3.157 3.157 0 00-2.983 2.593c-.429 1.605.189 2.6 1.608 2.6a3.177 3.177 0 003.015-2.653c.423-1.568-.209-2.54-1.64-2.54zm.6 2.615c-.366 1.363-1.062 2.17-1.862 2.17s-1.051-.807-.691-2.152c.38-1.422 1.056-2.221 1.872-2.221.794 0 1.047.817.675 2.203zm9.111-1.866l.17-.634h-1.021a1.123 1.123 0 01-.042.306l-1.132 4.228a2.133 2.133 0 01-.156.463h1.068a1.007 1.007 0 01.045-.308l.766-2.863a1.342 1.342 0 011.38-1.174h.621l.208-.767h-.479a1.5 1.5 0 00-1.428.749zm11.074 0l.17-.634h-1.018a1.024 1.024 0 01-.043.306l-1.131 4.228a2.194 2.194 0 01-.156.463h1.067a1.046 1.046 0 01.045-.308l.765-2.863a1.344 1.344 0 011.381-1.174h.62l.207-.767h-.478a1.5 1.5 0 00-1.429.749zm17.971-.749a2.439 2.439 0 00-1.691.683c-.16-.481-.508-.683-1.172-.683a2.247 2.247 0 00-1.632.683l.151-.567h-.981a.954.954 0 01-.042.306l-1.174 4.382a2.142 2.142 0 01-.11.308h1.037a.8.8 0 01.042-.308l.861-3.208a1.289 1.289 0 011.278-.9c.586 0 .786.269.626.866l-.871 3.246a1.834 1.834 0 01-.112.308h1.04a1 1 0 01.044-.308l.859-3.219a1.278 1.278 0 011.267-.883c.631 0 .807.25.641.865l-.864 3.237a1.265 1.265 0 01-.116.308h1.059a.872.872 0 01.043-.308l.913-3.4c.247-.927-.125-1.408-1.096-1.408zm4.222.466a1.483 1.483 0 011.085.483l.33-.626a3.021 3.021 0 00-1.384-.327 2.17 2.17 0 00-2.19 1.463c-.159.57-.041 1.05.844 1.433.915.392 1.075.559.96.982a1.212 1.212 0 01-1.243.837 1.587 1.587 0 01-1.24-.615l-.348.682a2.567 2.567 0 001.5.424 2.282 2.282 0 002.346-1.579c.2-.74-.037-1.115-.977-1.52-.795-.338-.938-.481-.835-.866a1.156 1.156 0 011.152-.771zm-12.698-.466a4.154 4.154 0 00-1.783.415l-.007.632a2.386 2.386 0 011.429-.526c.558 0 .84.286.732.73-.166.672-1.017.677-1.725.932a2.335 2.335 0 00-1.842 1.6c-.23.866.168 1.424 1 1.424a2.441 2.441 0 001.752-.758c-.073.547.114.758.633.758a1.55 1.55 0 00.784-.242l.149-.548a.7.7 0 01-.375.146c-.183 0-.251-.156-.175-.434l.8-2.97c.193-.756-.276-1.159-1.372-1.159zm-.22 3.443a1.534 1.534 0 01-1.375 1.114c-.518 0-.747-.339-.593-.9a1.587 1.587 0 011.171-1.078 12.191 12.191 0 001.148-.441zM86.374 6.85a2.1 2.1 0 00-1.654.8l.189-.71h-1.017a1.192 1.192 0 01-.045.306l-1.575 5.88a1.487 1.487 0 01-.119.309h1.055a1.135 1.135 0 01.042-.309l.34-1.263a3.616 3.616 0 001.572.113 3.212 3.212 0 002.362-2.6c.415-1.545-.037-2.526-1.15-2.526zm.124 2.546c-.358 1.337-.891 1.938-1.67 2.117a1.793 1.793 0 01-1.1-.171l.685-2.555c.35-.839.874-1.322 1.48-1.322.71-.001.93.721.605 1.931zm23.503-2.546a2.11 2.11 0 00-1.655.8l.191-.71h-1.016a1.3 1.3 0 01-.046.306l-1.575 5.88a1.394 1.394 0 01-.119.309h1.055a1.076 1.076 0 01.045-.309l.337-1.263a3.609 3.609 0 001.571.113 3.207 3.207 0 002.361-2.6c.413-1.545-.029-2.526-1.149-2.526zm.124 2.546c-.358 1.337-.892 1.938-1.67 2.117a1.8 1.8 0 01-1.1-.171l.686-2.555c.348-.839.873-1.322 1.479-1.322.71-.001.93.721.601 1.931zm30.384-3.958h-1.055a1.044 1.044 0 01-.042.308l-.34 1.263a2.608 2.608 0 00-1.573-.111 3.178 3.178 0 00-2.358 2.6c-.414 1.546.033 2.526 1.147 2.526a2.1 2.1 0 001.654-.8l-.191.712h1.02a1.22 1.22 0 01.045-.306l1.574-5.881a1.438 1.438 0 01.119-.311zm-2.261 4.646c-.349.837-.874 1.32-1.48 1.32-.71 0-.931-.721-.6-1.93.357-1.338.89-1.939 1.671-2.117a1.817 1.817 0 011.1.171zM80.356 5.428a4 4 0 00-3.78 3.288c-.546 2.036.236 3.3 2.04 3.3 1.825 0 3.262-1.268 3.822-3.364.537-1.992-.266-3.224-2.082-3.224zm.891 3.35c-.479 1.787-1.411 2.856-2.493 2.856-1.47 0-1.3-1.8-1.01-2.9.5-1.881 1.394-2.917 2.508-2.917 1.208-.003 1.449 1.263.995 2.961z" fill="#1a1311"/></svg>