<svg xmlns="http://www.w3.org/2000/svg" width="11.868" height="9.83" viewBox="0 0 11.868 9.83"><g data-name="Icon feather-mail" fill="#da6102"><path data-name="Path 58393" d="M1.587 0h8.694a1.6 1.6 0 011.587 1.6v6.623a1.6 1.6 0 01-1.587 1.6H1.587A1.6 1.6 0 010 8.223V1.6A1.6 1.6 0 011.587 0zm8.694 8.83a.6.6 0 00.587-.6V1.6a.6.6 0 00-.587-.6H1.587A.6.6 0 001 1.6v6.623a.6.6 0 00.587.6z"/><path data-name="Path 58394" d="M5.934 6.325a.5.5 0 01-.3-.1L.2 2.083a.5.5 0 01.6-.8l5.131 3.911 5.134-3.911a.502.502 0 01.606.8L6.237 6.222a.5.5 0 01-.303.103z"/></g></svg>