<svg xmlns="http://www.w3.org/2000/svg" width="17" height="14" viewBox="0 0 17 14"><g data-name="Icon feather-mail" fill="#fff"><path data-name="Path 58393" d="M2.1 0h12.8A2.115 2.115 0 0117 2.125v9.75A2.115 2.115 0 0114.9 14H2.1A2.115 2.115 0 010 11.875v-9.75A2.115 2.115 0 012.1 0zm12.8 13a1.114 1.114 0 001.1-1.125v-9.75A1.114 1.114 0 0014.9 1H2.1A1.114 1.114 0 001 2.125v9.75A1.114 1.114 0 002.1 13z"/><path data-name="Path 58394" d="M8.5 8.842a.5.5 0 01-.3-.1l-8-6.1a.5.5 0 11.6-.8l7.7 5.869 7.7-5.869a.502.502 0 11.606.8l-8 6.1a.5.5 0 01-.306.1z"/></g></svg>