<svg xmlns="http://www.w3.org/2000/svg" width="120.87" height="82.15" viewBox="0 0 120.87 82.15"><g fill="#fff"><path d="M0 2.349h5.08v.383H0z"/><path d="M2.348.001h.383v5.08h-.383z"/></g><g fill="#fff"><path d="M23.158 2.349h5.08v.383h-5.08z"/><path d="M25.507.001h.383v5.08h-.383z"/></g><g fill="#fff"><path d="M46.316 2.349h5.08v.383h-5.08z"/><path d="M48.665.001h.383v5.08h-.383z"/></g><g fill="#fff"><path d="M69.474 2.349h5.08v.383h-5.08z"/><path d="M71.822.001h.383v5.08h-.383z"/></g><g fill="#fff"><path d="M92.632 2.349h5.08v.383h-5.08z"/><path d="M94.981.001h.383v5.08h-.383z"/></g><g fill="#fff"><path d="M115.79 2.349h5.08v.383h-5.08z"/><path d="M118.139.001h.383v5.08h-.383z"/></g><g fill="#fff"><path d="M0 21.617h5.08V22H0z"/><path d="M2.348 19.268h.383v5.08h-.383z"/></g><g fill="#fff"><path d="M23.158 21.617h5.08V22h-5.08z"/><path d="M25.507 19.268h.383v5.08h-.383z"/></g><g fill="#fff"><path d="M46.316 21.617h5.08V22h-5.08z"/><path d="M48.665 19.268h.383v5.08h-.383z"/></g><g fill="#fff"><path d="M69.474 21.617h5.08V22h-5.08z"/><path d="M71.822 19.268h.383v5.08h-.383z"/></g><g fill="#fff"><path d="M92.632 21.617h5.08V22h-5.08z"/><path d="M94.981 19.268h.383v5.08h-.383z"/></g><g fill="#fff"><path d="M115.79 21.617h5.08V22h-5.08z"/><path d="M118.139 19.268h.383v5.08h-.383z"/></g><g fill="#fff"><path d="M0 40.884h5.08v.383H0z"/><path d="M2.348 38.535h.383v5.08h-.383z"/></g><g fill="#fff"><path d="M23.158 40.884h5.08v.383h-5.08z"/><path d="M25.507 38.535h.383v5.08h-.383z"/></g><g fill="#fff"><path d="M46.316 40.884h5.08v.383h-5.08z"/><path d="M48.665 38.535h.383v5.08h-.383z"/></g><g fill="#fff"><path d="M69.474 40.884h5.08v.383h-5.08z"/><path d="M71.822 38.535h.383v5.08h-.383z"/></g><g fill="#fff"><path d="M92.632 40.884h5.08v.383h-5.08z"/><path d="M94.981 38.535h.383v5.08h-.383z"/></g><g fill="#fff"><path d="M115.79 40.884h5.08v.383h-5.08z"/><path d="M118.139 38.535h.383v5.08h-.383z"/></g><g fill="#fff"><path d="M0 60.151h5.08v.383H0z"/><path d="M2.348 57.803h.383v5.08h-.383z"/></g><g fill="#fff"><path d="M23.158 60.151h5.08v.383h-5.08z"/><path d="M25.507 57.803h.383v5.08h-.383z"/></g><g fill="#fff"><path d="M46.316 60.151h5.08v.383h-5.08z"/><path d="M48.665 57.803h.383v5.08h-.383z"/></g><g fill="#fff"><path d="M69.474 60.151h5.08v.383h-5.08z"/><path d="M71.822 57.803h.383v5.08h-.383z"/></g><g fill="#fff"><path d="M92.632 60.151h5.08v.383h-5.08z"/><path d="M94.981 57.803h.383v5.08h-.383z"/></g><g fill="#fff"><path d="M115.79 60.151h5.08v.383h-5.08z"/><path d="M118.139 57.803h.383v5.08h-.383z"/></g><g fill="#fff"><path d="M0 79.42h5.08v.383H0z"/><path d="M2.348 77.071h.383v5.08h-.383z"/></g><g fill="#fff"><path d="M23.158 79.42h5.08v.383h-5.08z"/><path d="M25.507 77.071h.383v5.08h-.383z"/></g><g fill="#fff"><path d="M46.316 79.42h5.08v.383h-5.08z"/><path d="M48.665 77.071h.383v5.08h-.383z"/></g><g fill="#fff"><path d="M69.474 79.42h5.08v.383h-5.08z"/><path d="M71.822 77.071h.383v5.08h-.383z"/></g><g fill="#fff"><path d="M92.632 79.42h5.08v.383h-5.08z"/><path d="M94.981 77.071h.383v5.08h-.383z"/></g><g fill="#fff"><path d="M115.79 79.42h5.08v.383h-5.08z"/><path d="M118.139 77.071h.383v5.08h-.383z"/></g></svg>