<svg xmlns="http://www.w3.org/2000/svg" width="32" height="32" viewBox="0 0 32 32"><path d="M16 0a15.856 15.856 0 018.077 2.2 16.161 16.161 0 014.04 24.408A16.3 16.3 0 0119.089 32V20.5h3.138l.71-4.52h-4.751v-2.96a2.573 2.573 0 01.547-1.7 2.5 2.5 0 012.007-.764h2.869v-3.96q-.062-.02-1.172-.157a23.292 23.292 0 00-2.528-.157 6.316 6.316 0 00-4.538 1.619 6.255 6.255 0 00-1.705 4.641v3.435H10.05v4.52h3.616v11.5a15.911 15.911 0 01-9.785-5.392A16.143 16.143 0 017.923 2.197 15.861 15.861 0 0116 0z" fill="#090e21" fill-rule="evenodd"/></svg>