<svg xmlns="http://www.w3.org/2000/svg" width="36" height="34" viewBox="0 0 36 34"><g transform="translate(-720 -3312)"><rect width="36" height="34" rx="2" transform="translate(720 3312)" fill="#006e61"/><g fill="#fff"><path d="M740.326 3336.9a.4.4 0 01-.4-.4v-12.489a.4.4 0 01.117-.283l4.163-4.163a.4.4 0 01.683.283v12.489a.4.4 0 01-.117.283l-4.163 4.163a.4.4 0 01-.283.117zm.4-12.724v11.358l3.363-3.363v-11.357z"/><path d="M741.714 3333.431a.4.4 0 01-.283-.117.4.4 0 010-.566l1.383-1.388a.4.4 0 01.566 0 .4.4 0 010 .566l-1.383 1.388a.4.4 0 01-.283.117zm0-8.326a.4.4 0 01-.283-.117.4.4 0 010-.566l1.383-1.388a.4.4 0 01.566 0 .4.4 0 010 .566l-1.383 1.388a.4.4 0 01-.283.117z"/><path d="M743.102 3332.043a.4.4 0 01-.4-.4v-8.326a.4.4 0 01.4-.4.4.4 0 01.4.4v8.326a.4.4 0 01-.4.4zm-1.388 1.388a.4.4 0 01-.4-.4v-8.326a.4.4 0 01.4-.4.4.4 0 01.4.4v8.326a.4.4 0 01-.4.4zm-8.326 0a.4.4 0 01-.283-.117.4.4 0 010-.566l1.383-1.388a.4.4 0 01.566 0 .4.4 0 010 .566l-1.383 1.388a.4.4 0 01-.283.117zm0-8.326a.4.4 0 01-.283-.117.4.4 0 010-.566l1.383-1.388a.4.4 0 01.566 0 .4.4 0 010 .566l-1.383 1.388a.4.4 0 01-.283.117z"/><path d="M734.775 3332.043a.4.4 0 01-.4-.4v-8.326a.4.4 0 01.4-.4.4.4 0 01.4.4v8.326a.4.4 0 01-.4.4zm-1.387 1.388a.4.4 0 01-.4-.4v-8.326a.4.4 0 01.4-.4.4.4 0 01.4.4v8.326a.4.4 0 01-.4.4zm6.938 3.469a.4.4 0 01-.283-.117l-4.163-4.163a.4.4 0 01-.117-.283v-12.489a.4.4 0 01.683-.283l4.163 4.163a.4.4 0 01-.566.566l-3.48-3.48v11.358l4.046 4.046a.4.4 0 01-.283.683z"/><path d="M732 3336.9a.4.4 0 01-.4-.4v-12.489a.4.4 0 01.117-.283l4.163-4.163a.4.4 0 01.566.566l-4.046 4.046v11.358l3.48-3.48a.4.4 0 11.566.566l-4.163 4.163a.4.4 0 01-.283.116z"/></g></g></svg>