<svg xmlns="http://www.w3.org/2000/svg" width="36" height="34" viewBox="0 0 36 34"><g transform="translate(-720 -3312)"><rect width="36" height="34" rx="2" transform="translate(720 3312)" fill="#0065cd"/><g fill="#fff"><path d="M737.735 3321.5a6.242 6.242 0 016.235 6.235c0 1.982-1.011 4.054-3 6.159a19.182 19.182 0 01-2.953 2.541.5.5 0 01-.555 0 19.182 19.182 0 01-2.962-2.541c-1.994-2.1-3-4.176-3-6.159a6.242 6.242 0 016.235-6.235zm0 13.906c1.119-.819 5.235-4.077 5.235-7.671a5.235 5.235 0 00-10.47 0c0 3.594 4.116 6.852 5.235 7.671z"/><path d="M737.735 3330.146a2.412 2.412 0 112.412-2.412 2.414 2.414 0 01-2.412 2.412zm0-3.823a1.412 1.412 0 101.412 1.412 1.413 1.413 0 00-1.412-1.412z"/></g></g></svg>