<svg xmlns="http://www.w3.org/2000/svg" width="36" height="34" viewBox="0 0 36 34"><g transform="translate(-720 -3312)"><rect width="36" height="34" rx="2" transform="translate(720 3312)" fill="#260cb9"/><g fill="#fff"><path d="M731.392 3319.5h14.131v15.76h-14.131zm13.131 1h-12.131v13.76h12.131z"/><path d="M744 3337.152h-14a.5.5 0 01-.5-.5v-14.76a.5.5 0 01.5-.5h1.892a.5.5 0 010 1H730.5v13.76h13v-1.392a.5.5 0 011 0v1.892a.5.5 0 01-.5.5z"/><path d="M733.876 3321.321h2.914a.5.5 0 01.5.5v3.278a.5.5 0 01-.5.5h-2.914a.5.5 0 01-.5-.5v-3.278a.5.5 0 01.5-.5zm2.414 1h-1.914v2.278h1.914zm6.913 0h-4.956a.5.5 0 01-.5-.5.5.5 0 01.5-.5h4.956a.5.5 0 01.5.5.5.5 0 01-.5.5zm-1.469 1.638h-3.487a.5.5 0 01-.5-.5.5.5 0 01.5-.5h3.487a.5.5 0 01.5.5.5.5 0 01-.5.5zm-1.743 1.64h-1.744a.5.5 0 01-.5-.5.5.5 0 01.5-.5h1.744a.5.5 0 01.5.5.5.5 0 01-.5.5z"/></g></g></svg>