<svg xmlns="http://www.w3.org/2000/svg" width="36" height="34" viewBox="0 0 36 34"><g transform="translate(-720 -3312)"><rect data-name="Rectangle 4880" width="36" height="34" rx="2" transform="translate(720 3312)" fill="#fff"/><path data-name="Icon awesome-building" d="M744.55 3335.542h-.6v-13.648a.718.718 0 00-.717-.718h-10.057a.718.718 0 00-.718.718v13.648h-.6a.359.359 0 00-.358.36v.6h13.409v-.6a.359.359 0 00-.359-.36zm-9.219-12.091a.359.359 0 01.359-.359h1.2a.359.359 0 01.359.359v1.2a.359.359 0 01-.359.359h-1.2a.359.359 0 01-.359-.359zm0 2.873a.359.359 0 01.359-.359h1.2a.359.359 0 01.359.359v1.2a.359.359 0 01-.359.359h-1.2a.359.359 0 01-.359-.359zm1.556 4.43h-1.197a.359.359 0 01-.359-.359v-1.2a.359.359 0 01.359-.359h1.2a.359.359 0 01.359.359v1.2a.359.359 0 01-.362.359zm2.275 4.789h-1.915v-2.515a.359.359 0 01.359-.359h1.194a.359.359 0 01.359.359zm1.916-5.149a.359.359 0 01-.359.359h-1.2a.359.359 0 01-.359-.359v-1.2a.359.359 0 01.359-.359h1.2a.359.359 0 01.359.359zm0-2.873a.359.359 0 01-.359.359h-1.2a.359.359 0 01-.359-.359v-1.2a.359.359 0 01.359-.359h1.2a.359.359 0 01.359.359zm0-2.873a.359.359 0 01-.359.359h-1.2a.359.359 0 01-.359-.359v-1.2a.359.359 0 01.359-.359h1.2a.359.359 0 01.359.359z" fill="none" stroke="#ca0193" stroke-width=".8"/></g></svg>