<svg xmlns="http://www.w3.org/2000/svg" width="36" height="34" viewBox="0 0 36 34"><g transform="translate(-720 -3312)"><rect width="36" height="34" rx="2" transform="translate(720 3312)" fill="#ca0193"/><path d="M745.309 3336.9H731.1v-1a.76.76 0 01.759-.759h.2v-13.247a1.12 1.12 0 011.117-1.118h10.057a1.12 1.12 0 011.118 1.118v13.248h.2a.76.76 0 01.759.759zm-13.409-.8h12.609v-.158h-.958v-14.048a.319.319 0 00-.318-.318h-10.057a.319.319 0 00-.318.318v14.048h-.958zm7.662-.158h-2.715v-2.914a.76.76 0 01.759-.759h1.194a.76.76 0 01.759.759zm-1.916-.8h1.116v-2.073h-1.115zm3.072-3.988h-1.2a.76.76 0 01-.759-.759v-1.2a.76.76 0 01.759-.759h1.2a.76.76 0 01.759.759v1.2a.76.76 0 01-.759.759zm-1.156-.8h1.116v-1.116h-1.116zm-2.675.8h-1.197a.76.76 0 01-.759-.759v-1.2a.76.76 0 01.759-.759h1.2a.76.76 0 01.759.759v1.2a.76.76 0 01-.762.759zm-1.156-.8h1.116v-1.116h-1.116zm4.987-2.078h-1.2a.76.76 0 01-.759-.759v-1.2a.76.76 0 01.759-.759h1.2a.76.76 0 01.759.759v1.2a.76.76 0 01-.759.759zm-1.156-.8h1.116v-1.111h-1.116zm-2.675.8h-1.197a.76.76 0 01-.759-.759v-1.2a.76.76 0 01.759-.759h1.2a.76.76 0 01.759.759v1.2a.76.76 0 01-.762.759zm-1.156-.8h1.116v-1.111h-1.116zm4.987-2.069h-1.2a.76.76 0 01-.759-.759v-1.2a.76.76 0 01.759-.759h1.2a.76.76 0 01.759.759v1.2a.76.76 0 01-.759.759zm-1.156-.8h1.116v-1.115h-1.116zm-2.675.8h-1.197a.76.76 0 01-.759-.759v-1.2a.76.76 0 01.759-.759h1.2a.76.76 0 01.759.759v1.2a.76.76 0 01-.762.759zm-1.156-.8h1.116v-1.115h-1.116z" fill="#fff"/></g></svg>