<svg xmlns="http://www.w3.org/2000/svg" width="12.335" height="14.126" viewBox="0 0 12.335 14.126"><g data-name="Group 6"><path data-name="Path 58381" d="M1.553 0H8.81l2.9 2.421v11.7H1.553z" fill="#fff"/><g data-name="Group 4"><path data-name="Path 6" d="M9.484.006h-7.2a.732.732 0 00-.732.732v12.657a.732.732 0 00.732.732h9.319a.732.732 0 00.732-.732V3.159a.732.732 0 00-.181-.482L10.035.256a.732.732 0 00-.551-.25zm2.062 3.088h-2.05V.753zm.056 10.3H2.283V.738h6.48v2.356a.732.732 0 00.732.732h2.107z" fill="#333"/></g><path data-name="Rectangle 4" fill="#fc2130" d="M0 2.568h7.322v3.408H0z"/><path data-name="Rectangle 5" d="M3.931 7.554h5.91a.375.375 0 01.375.375.375.375 0 01-.375.375h-5.91a.375.375 0 01-.375-.375.375.375 0 01.375-.375z" fill="#333"/><path data-name="Rectangle 6" d="M3.931 9.149h5.91a.375.375 0 01.375.375.375.375 0 01-.375.375h-5.91a.375.375 0 01-.375-.375.375.375 0 01.375-.375z" fill="#333"/><path data-name="Rectangle 7" d="M3.931 10.745h5.91a.375.375 0 01.375.375.375.375 0 01-.375.375h-5.91a.375.375 0 01-.375-.375.375.375 0 01.375-.375z" fill="#333"/><g data-name="Group 5" fill="#fff"><path data-name="Path 7" d="M1.998 3.327c.409 0 .693.191.693.608a.59.59 0 01-.672.6h-.425v.68H1.18V3.327zm-.4.884h.369c.186 0 .324-.061.324-.271s-.138-.274-.321-.274h-.372z"/><path data-name="Path 8" d="M2.955 3.327h.765a.946.946 0 010 1.891h-.765zm.714 1.546c.38 0 .55-.22.55-.6s-.175-.6-.55-.6h-.3v1.2z"/><path data-name="Path 9" d="M6.253 3.675h-.919v.438h.8v.329h-.8v.775H4.92v-1.89h1.333z"/></g></g></svg>