<svg xmlns="http://www.w3.org/2000/svg" width="80.128" height="85.461" viewBox="0 0 80.128 85.461"><path data-name="Path 58340" d="M51.082 7.284l-2.439-.758a7.529 7.529 0 00-6.054-5.33c-5.006-.879-9.581 1.883-14.53 5.389s-12.31 12.863-5.707 23.029c0 0-3.085 1.172-2.522 6.211s2.935 6.537 5.418 5.685c0 0 1.13 5.762 3.642 9.386l.3 5.866-1.226 1.358-1.586 5.866s-.9 8.027 2.813 20.679h21.718s3.508-12.366 2.434-23.166l-.9-3.386-1.189-1.206.168-6.374s2.492-2.825 3.677-8.764c0 0 3.64.984 5.131-3.9a7.7 7.7 0 00-1.645-7.794s7.563-18.307-7.494-22.786z" fill="#fff"/><path data-name="Path 58341" d="M27.862 63.193a1.02 1.02 0 00-.7-1.032 2.19 2.19 0 00-.677-.109c-1.088 0-1.858.792-2.749 1.71a13.345 13.345 0 01-3.296 2.66 50.819 50.819 0 01-5.5 2.313 59.884 59.884 0 00-10.55 4.822C-1.159 77.087.106 84.322.162 84.634a.989.989 0 001 .8h28.027a.987.987 0 00.8-.346.948.948 0 00.2-.824c-2.792-12.531-2.326-20.986-2.321-21.07z" fill="#6cb8c4"/><path data-name="Path 58342" d="M75.737 73.574a59.952 59.952 0 00-10.549-4.834 50.724 50.724 0 01-5.5-2.318 13.346 13.346 0 01-3.291-2.66c-.892-.918-1.661-1.712-2.749-1.712a2.187 2.187 0 00-.677.107 1.014 1.014 0 00-.7 1.028c.005.084.477 8.5-2.321 21.06a.969.969 0 001 1.188h28.024a.99.99 0 001-.8c.056-.307 1.321-7.53-4.227-11.06z" fill="#6cb8c4"/><path data-name="Path 58343" d="M50.025 56.38a1.029 1.029 0 01.079-.133c-.015-.838 0-1.639.036-2.356a14.252 14.252 0 01-19.978-.094c.04.824.061 1.745.031 2.668.472.744 2.9 4.041 9.869 5.96 7.957-2.189 9.943-6.006 9.962-6.044z" fill="none"/><path data-name="Path 58344" d="M46.845 31.834a.976.976 0 101.115.811.977.977 0 00-1.115-.811z" fill="#494949"/><path data-name="Path 58345" d="M40.322 40.804a.976.976 0 101.115.811.977.977 0 00-1.115-.811z" fill="#494949"/><path data-name="Path 58346" d="M32.441 32.647a.976.976 0 101.116-.811.976.976 0 00-1.116.811z" fill="#494949"/><path data-name="Path 58347" d="M40.316 48.792a5.675 5.675 0 004.807-2.5 1.02 1.02 0 00-1.744-1.056 3.853 3.853 0 01-6.12.009 1.019 1.019 0 00-1.749 1.046 5.676 5.676 0 004.806 2.5z" fill="#494949"/><path data-name="Path 58348" d="M49.028 29.994a1.019 1.019 0 00.908.555 1.008 1.008 0 00.464-.113 1.019 1.019 0 00.442-1.372 4.528 4.528 0 00-3.167-2.319 4.946 4.946 0 00-3.682 1.278 1.02 1.02 0 001.4 1.483 2.9 2.9 0 012.028-.739 2.488 2.488 0 011.608 1.226z" fill="#494949"/><path data-name="Path 58349" d="M46.445 13.359a1.019 1.019 0 101.967-.533c-1.146-4.234-5.291-6.095-5.467-6.172a1.02 1.02 0 10-.819 1.867 8.312 8.312 0 014.318 4.837z" fill="#494949"/><path data-name="Path 58350" d="M27.739 28.579a.978.978 0 00.121.007 1.02 1.02 0 001.011-.9c1.335-11.211 6.686-14.54 6.771-14.591a1.02 1.02 0 00-1.022-1.764c-.256.148-6.3 3.761-7.774 16.113a1.019 1.019 0 00.893 1.135z" fill="#494949"/><path data-name="Path 58351" d="M28.717 7.351c.075-.063 7.631-6.3 13.694-5.183 5.012.922 5.216 4.654 5.223 4.829a1.011 1.011 0 001.018.982h.021a1 1 0 001-1.031c-.039-1.918-1.531-5.794-6.891-6.781-7.008-1.29-15.033 5.339-15.37 5.622a1.018 1.018 0 101.305 1.562z" fill="#494949"/><path data-name="Path 58352" d="M37.014 21.561a1.02 1.02 0 10.854-1.851l-1.545-.713c.406-.568.821-1.113 1.235-1.617a1.013 1.013 0 00.5.347 10.942 10.942 0 013.963 2.411 1.02 1.02 0 001.433-1.45 12.949 12.949 0 00-4.531-2.82 5.915 5.915 0 012.094-1.472c1.3-.408 3.842 2.355 5.149 4.351a1.02 1.02 0 001.706-1.116c-.68-1.043-4.244-6.191-7.466-5.182-3.808 1.194-8.167 9.2-8.35 9.536a1.02 1.02 0 101.794.969c.4-.737.844-1.5 1.318-2.244l1.842.851z" fill="#494949"/><path data-name="Path 58353" d="M22.572 76.135l-3.608-2.784a42.168 42.168 0 014.457-6.675 1.02 1.02 0 00-1.55-1.324 43.4 43.4 0 00-5.114 7.825 1.019 1.019 0 00.286 1.267l3.014 2.325-5.218 2.689a1.019 1.019 0 00-.415 1.417l2.36 4.077a1.02 1.02 0 101.764-1.022l-1.824-3.15 5.691-2.932a1.02 1.02 0 00.156-1.713z" fill="#494949"/><path data-name="Path 58354" d="M26.851 72.903l-3.048 2.027a1.02 1.02 0 001.129 1.7l3.048-2.027a1.02 1.02 0 10-1.128-1.7z" fill="#494949"/><path data-name="Path 58355" d="M52.277 69.819c-.231-.317-5.08-6.887-9.886-5.974h-.008c5.65-1.916 8.151-4.645 9.048-5.892a1.016 1.016 0 00.02.429l.9 3.392a1.021 1.021 0 00.984.757 1 1 0 00.263-.035 1.02 1.02 0 00.722-1.247l-.9-3.392a1.021 1.021 0 00-1.248-.722l-.035.011a1.046 1.046 0 00.026-.269 36.35 36.35 0 01.26-5.766v-.047a27.2 27.2 0 003.479-8.305 3.548 3.548 0 00.716.074 3.789 3.789 0 002.776-1.311c2.14-2.274 3.005-7.187 1.747-9.919a5.992 5.992 0 00-1.164-1.747c1.634-5.462 2.231-10.031.262-15.735-2.177-6.306-8.641-7.869-8.916-7.932a1.02 1.02 0 10-.459 1.986c.056.013 5.636 1.36 7.448 6.612a19.254 19.254 0 01.691 10.639c-.334-8.6-5.545-10.183-5.8-10.255a1.013 1.013 0 00-1.25.693 1.024 1.024 0 00.684 1.264c.216.067 5.24 1.733 4.2 11.769a3.329 3.329 0 00-.628.215 27.566 27.566 0 01-.889-2.815 39.109 39.109 0 00-1.358-4.213c-1.638-4.012-4.21-3.487-4.318-3.463l.446 1.989a.263.263 0 01-.05.009c.38-.038 1.277.377 2.036 2.235a37.6 37.6 0 011.282 3.992c.592 2.117 1.059 3.789 1.968 4.556a1.017 1.017 0 001.588-.364.969.969 0 00.13-.065 1.192 1.192 0 01.888-.07 2.7 2.7 0 011.364 1.552c.9 1.947.162 6.031-1.379 7.669a1.657 1.657 0 01-1.577.641 28.59 28.59 0 00.514-5 1.019 1.019 0 00-2.038 0c0 5.221-2.684 20.126-14.613 20.126S25.589 40.986 25.589 35.765a1.019 1.019 0 10-2.038 0 28.575 28.575 0 00.514 5 1.658 1.658 0 01-1.577-.641c-1.541-1.637-2.276-5.723-1.38-7.669a2.7 2.7 0 011.354-1.552 1.2 1.2 0 01.887.069 3.131 3.131 0 011.331.672 1.039 1.039 0 00.221-.024 1.019 1.019 0 00.774-1.216 20.932 20.932 0 01.105-9.475 1.019 1.019 0 00-1.952-.586 22.2 22.2 0 00-.492 8.511 2.886 2.886 0 00-.256-.032C16.716 17.75 25.938 9.939 26.346 9.601a1.02 1.02 0 00-1.294-1.576c-.11.091-10.7 8.983-4.013 21.323a5.194 5.194 0 00-1.784 2.254c-1.258 2.732-.393 7.645 1.747 9.92a3.789 3.789 0 002.776 1.311 3.616 3.616 0 00.716-.074 27.345 27.345 0 003.383 8.158.832.832 0 00.009.112 37.541 37.541 0 01.262 5.686.979.979 0 00.077.42 1.02 1.02 0 00-1.245.723l-.9 3.392a1.019 1.019 0 00.722 1.247 1.037 1.037 0 00.263.035 1.019 1.019 0 00.984-.757l.9-3.392a1.085 1.085 0 00.025-.126c1.081 1.37 3.583 3.8 8.65 5.546l-.065.013c-4.746-.721-9.48 5.692-9.708 6a1.02 1.02 0 001.648 1.2 19.445 19.445 0 014.421-4.208 242.196 242.196 0 013.337 4.988l-2.449 12.478a.967.967 0 001 1.163h8.188a.989.989 0 001.019-.984.8.8 0 00-.052-.286L42.541 71.81a252.609 252.609 0 013.435-5.135 19.031 19.031 0 014.651 4.346 1.02 1.02 0 001.648-1.2zM30.196 56.463c.029-.923.009-1.843-.031-2.668a14.252 14.252 0 0019.978.094 37.097 37.097 0 00-.036 2.356 1.038 1.038 0 00-.079.133c-.02.038-2.006 3.856-9.962 6.044-6.968-1.919-9.4-5.217-9.869-5.96z" fill="#494949"/><path data-name="Path 58356" d="M65.798 80.078a1.023 1.023 0 00-.511-.62l-5.218-2.689 3.013-2.325a1.018 1.018 0 00.286-1.267 43.4 43.4 0 00-5.114-7.825 1.02 1.02 0 00-1.55 1.324 42.158 42.158 0 014.457 6.675l-3.608 2.784a1.02 1.02 0 00.156 1.713L63.4 80.78l-1.823 3.15a1.02 1.02 0 101.764 1.022l2.36-4.077a1.022 1.022 0 00.1-.8z" fill="#494949"/><path data-name="Path 58357" d="M56.324 74.929l-3.048-2.027a1.02 1.02 0 00-1.129 1.7l3.048 2.027a1.02 1.02 0 001.129-1.7z" fill="#494949"/></svg>