<svg xmlns="http://www.w3.org/2000/svg" width="129.809" height="20.512" viewBox="0 0 129.809 20.512"><g fill="#00bbe8"><circle cx="1.219" cy="1.219" transform="translate(127.371 18.074)" r="1.219"/><circle cx="1.219" cy="1.219" transform="translate(120.057 18.074)" r="1.219"/><circle cx="1.219" cy="1.219" transform="translate(112.742 18.074)" r="1.219"/><circle cx="1.219" cy="1.219" transform="translate(105.427 18.074)" r="1.219"/><circle cx="1.219" cy="1.219" transform="translate(98.113 18.074)" r="1.219"/><circle cx="1.219" cy="1.219" transform="translate(90.798 18.074)" r="1.219"/><circle cx="1.219" cy="1.219" transform="translate(54.224 18.074)" r="1.219"/><circle cx="1.219" cy="1.219" transform="translate(46.91 18.074)" r="1.219"/><circle cx="1.219" cy="1.219" transform="translate(24.966 18.074)" r="1.219"/><circle cx="1.219" cy="1.219" transform="translate(127.371 9.037)" r="1.219"/><circle cx="1.219" cy="1.219" transform="translate(120.057 9.037)" r="1.219"/><circle cx="1.219" cy="1.219" transform="translate(112.742 9.037)" r="1.219"/><circle cx="1.219" cy="1.219" transform="translate(83.483 9.037)" r="1.219"/><circle cx="1.219" cy="1.219" transform="translate(76.168 9.037)" r="1.219"/><circle cx="1.219" cy="1.219" transform="translate(68.854 9.037)" r="1.219"/><circle cx="1.219" cy="1.219" transform="translate(61.539 9.037)" r="1.219"/><circle cx="1.219" cy="1.219" transform="translate(54.224 9.037)" r="1.219"/><circle cx="1.219" cy="1.219" transform="translate(39.595 9.037)" r="1.219"/><circle cx="1.219" cy="1.219" transform="translate(32.28 9.037)" r="1.219"/><circle cx="1.219" cy="1.219" transform="translate(24.966 9.037)" r="1.219"/><circle cx="1.219" cy="1.219" transform="translate(14.629 9.037)" r="1.219"/><circle cx="1.219" cy="1.219" transform="translate(7.315 9.037)" r="1.219"/><circle cx="1.219" cy="1.219" transform="translate(0 9.037)" r="1.219"/><circle cx="1.219" cy="1.219" transform="translate(127.371)" r="1.219"/><circle cx="1.219" cy="1.219" transform="translate(120.057)" r="1.219"/><circle cx="1.219" cy="1.219" transform="translate(112.742)" r="1.219"/><circle cx="1.219" cy="1.219" transform="translate(105.427)" r="1.219"/><circle cx="1.219" cy="1.219" transform="translate(98.113)" r="1.219"/><circle cx="1.219" cy="1.219" transform="translate(90.798)" r="1.219"/><circle cx="1.219" cy="1.219" transform="translate(83.483)" r="1.219"/><circle cx="1.219" cy="1.219" transform="translate(76.168)" r="1.219"/><circle cx="1.219" cy="1.219" transform="translate(68.854)" r="1.219"/><circle cx="1.219" cy="1.219" transform="translate(61.539)" r="1.219"/></g></svg>