<svg xmlns="http://www.w3.org/2000/svg" width="77.858" height="15.274" viewBox="0 0 77.858 15.274"><path d="M0 4.895h1.089v10.379H0zm2.02 6.618h1.089v3.761H2.02zm2.02-.588h1.089v4.348H4.04zM6.061 0H7.15v15.273H6.061zM8.08 11.432h1.089v3.842H8.08zm2.021-3.493h1.089v7.335h-1.089zm2.02 1.377h1.089v5.958h-1.089zm2.021-4.023h1.089v9.981h-1.089zm2.019-.834h1.089v10.815h-1.089zM18.182.867h1.089v14.406h-1.089zm2.02 7.278h1.089v7.129h-1.089zm2.021-5.087h1.089v12.216h-1.089zm2.019 5.388h1.089v6.828h-1.089zm2.021-2.395h1.089v9.223h-1.089zm2.02 4.754h1.089v4.468h-1.089zm2.02-3.286h1.089v7.754h-1.089zm2.02-6.802h1.089v14.557h-1.089zm2.021 9.304h1.089v5.253h-1.089zm2.02-1.549h1.089v6.802h-1.089zm2.02-.345h1.089v7.147h-1.089zm2.021 1.093h1.089v6.054h-1.089zm2.02-5.608h1.089v11.662h-1.089zm2.021 3.142h1.089v8.52h-1.089zm2.019.931h1.089v7.588h-1.089zm2.021.142h1.089v7.446h-1.089zm2.02-3.816h1.089v11.263h-1.089zm2.02.884h1.089v10.379h-1.089zm2.02 6.618h1.089v3.761h-1.089zm2.021-.588h1.089v4.348h-1.089zM58.587 0h1.089v15.273h-1.089zm2.021 11.432h1.089v3.842h-1.089zm2.019-3.493h1.089v7.335h-1.089zm2.021 1.377h1.089v5.958h-1.089zm2.02-4.023h1.089v9.981h-1.089zm2.02-.834h1.089v10.815h-1.089zm2.02-3.592h1.089v14.406h-1.089zm2.021 7.278h1.089v7.129h-1.089zm2.02-5.087h1.089v12.216h-1.089zm2.02 5.388h1.089v6.828h-1.089z" fill="#00bbe8"/></svg>