<svg xmlns="http://www.w3.org/2000/svg" width="110.427" height="19.312" viewBox="0 0 110.427 19.312"><path d="M43.041 16.025h67.386v3.287H43.041zm0-5.342h67.386v3.287H43.041zm0-5.342h67.386v3.287H43.041zm0-5.341h67.386v3.287H43.041zm-1.439 16.025h.565v3.287h-.565zm0-5.342h.565v3.287h-.565zm0-5.342h.565v3.287h-.565zm0-5.341h.565v3.287h-.565zm-1.386 16.025h.565v3.287h-.565zm0-5.342h.565v3.287h-.565zm0-5.342h.565v3.287h-.565zm0-5.341h.565v3.287h-.565zm-1.387 16.025h.565v3.287h-.565zm0-5.342h.565v3.287h-.565zm0-5.342h.565v3.287h-.565zm0-5.341h.565v3.287h-.565zm-1.387 16.025h.565v3.287h-.565zm0-5.342h.565v3.287h-.565zm0-5.342h.565v3.287h-.565zm0-5.341h.565v3.287h-.565zm-1.387 16.025h.565v3.287h-.565zm0-5.342h.565v3.287h-.565zm0-5.342h.565v3.287h-.565zm0-5.341h.565v3.287h-.565zm-1.386 16.025h.565v3.287h-.565zm0-5.342h.565v3.287h-.565zm0-5.342h.565v3.287h-.565zm0-5.341h.565v3.287h-.565zm-1.387 16.025h.565v3.287h-.565zm0-5.342h.565v3.287h-.565zm0-5.342h.565v3.287h-.565zm0-5.341h.565v3.287h-.565zm-1.387 16.025h.565v3.287h-.565zm0-5.342h.565v3.287h-.565zm0-5.342h.565v3.287h-.565zm0-5.341h.565v3.287h-.565zm-1.387 16.025h.565v3.287h-.565zm0-5.342h.565v3.287h-.565zm0-5.342h.565v3.287h-.565zm0-5.341h.565v3.287h-.565zm-1.386 16.025h.565v3.287h-.565zm0-5.342h.565v3.287h-.565zm0-5.342h.565v3.287h-.565zm0-5.341h.565v3.287h-.565zm-1.387 16.025h.565v3.287h-.565zm0-5.342h.565v3.287h-.565zm0-5.342h.565v3.287h-.565zm0-5.341h.565v3.287h-.565zm-1.387 16.025h.565v3.287h-.565zm0-5.342h.565v3.287h-.565zm0-5.342h.565v3.287h-.565zm0-5.341h.565v3.287h-.565zm-1.387 16.025h.565v3.287h-.565zm0-5.342h.565v3.287h-.565zm0-5.342h.565v3.287h-.565zm0-5.341h.565v3.287h-.565zm-1.387 16.025h.565v3.287h-.565zm0-5.342h.565v3.287h-.565zm0-5.342h.565v3.287h-.565zm0-5.341h.565v3.287h-.565zm-1.386 16.025h.565v3.287h-.565zm0-5.342h.565v3.287h-.565zm0-5.342h.565v3.287h-.565zm0-5.341h.565v3.287h-.565zm-1.387 16.025h.565v3.287h-.565zm0-5.342h.565v3.287h-.565zm0-5.342h.565v3.287h-.565zm0-5.341h.565v3.287h-.565zm-1.387 16.025h.565v3.287h-.565zm0-5.342h.565v3.287h-.565zm0-5.342h.565v3.287h-.565zm0-5.341h.565v3.287h-.565zm-1.386 16.025h.565v3.287h-.565zm0-5.342h.565v3.287h-.565zm0-5.342h.565v3.287h-.565zm0-5.341h.565v3.287h-.565zm-1.387 16.025h.565v3.287h-.565zm0-5.342h.565v3.287h-.565zm0-5.342h.565v3.287h-.565zm0-5.341h.565v3.287h-.565zm-1.387 16.025h.565v3.287h-.565zm0-5.342h.565v3.287h-.565zm0-5.342h.565v3.287h-.565zm0-5.341h.565v3.287h-.565zm-1.387 16.025h.565v3.287h-.565zm0-5.342h.565v3.287h-.565zm0-5.342h.565v3.287h-.565zm0-5.341h.565v3.287h-.565zm-1.386 16.025h.565v3.287h-.565zm0-5.342h.565v3.287h-.565zm0-5.342h.565v3.287h-.565zm0-5.341h.565v3.287h-.565zm-1.387 16.025h.565v3.287h-.565zm0-5.342h.565v3.287h-.565zm0-5.342h.565v3.287h-.565zm0-5.341h.565v3.287h-.565zM9.707 16.025h.565v3.287h-.565zm0-5.342h.565v3.287h-.565zm0-5.342h.565v3.287h-.565zm0-5.341h.565v3.287h-.565zM8.32 16.025h.565v3.287H8.32zm0-5.342h.565v3.287H8.32zm0-5.342h.565v3.287H8.32zM8.32 0h.565v3.287H8.32zM6.933 16.025h.565v3.287h-.565zm0-5.342h.565v3.287h-.565zm0-5.342h.565v3.287h-.565zm0-5.341h.565v3.287h-.565zM5.547 16.025h.565v3.287h-.565zm0-10.684h.565v3.287h-.565zm0-5.341h.565v3.287h-.565zM4.16 16.025h.565v3.287H4.16zm0-10.684h.565v3.287H4.16zM4.16 0h.565v3.287H4.16zM2.773 16.025h.565v3.287h-.565zm0-10.684h.565v3.287h-.565zm0-5.341h.565v3.287h-.565zM1.386 16.025h.565v3.287h-.565zM1.386 0h.565v3.287h-.565zM0 16.025h.565v3.287H0zM0 0h.565v3.287H0z" opacity=".5" fill="#00bbe8"/></svg>